<?xml version="1.0" encoding="UTF-8" standalone="no"?>
<svg
   xmlns:dc="http://purl.org/dc/elements/1.1/"
   xmlns:cc="http://creativecommons.org/ns#"
   xmlns:rdf="http://www.w3.org/1999/02/22-rdf-syntax-ns#"
   xmlns:svg="http://www.w3.org/2000/svg"
   xmlns="http://www.w3.org/2000/svg"
   xmlns:sodipodi="http://sodipodi.sourceforge.net/DTD/sodipodi-0.dtd"
   xmlns:inkscape="http://www.inkscape.org/namespaces/inkscape"
   inkscape:version="1.0 (4035a4fb49, 2020-05-01)"
   sodipodi:docname="overview.svg"
   id="svg6"
   version="1.1"
   width="444pt"
   viewBox="0 -18 444.8228 444"
   height="444pt">
  <metadata
     id="metadata12">
    <rdf:RDF>
      <cc:Work
         rdf:about="">
        <dc:format>image/svg+xml</dc:format>
        <dc:type
           rdf:resource="http://purl.org/dc/dcmitype/StillImage" />
      </cc:Work>
    </rdf:RDF>
  </metadata>
  <defs
     id="defs10" />
  <sodipodi:namedview
     inkscape:current-layer="svg6"
     inkscape:window-maximized="1"
     inkscape:window-y="-8"
     inkscape:window-x="-8"
     inkscape:cy="278.78423"
     inkscape:cx="580.61058"
     inkscape:zoom="0.86596692"
     showgrid="false"
     id="namedview8"
     inkscape:window-height="1017"
     inkscape:window-width="2560"
     inkscape:pageshadow="2"
     inkscape:pageopacity="0"
     guidetolerance="10"
     gridtolerance="10"
     objecttolerance="10"
     borderopacity="1"
     bordercolor="#666666"
     pagecolor="#ffffff" />
  <g
     transform="translate(4.6577618,-28.478152)"
     id="g873">
    <path
       d="m 64.484512,242.11777 h 5.082031 c 4.953125,20 22.3125,33.1914 42.910157,33.1914 20.60156,0 37.96093,-13.1914 42.91406,-33.1914 H 289.3517 c 4.95312,20 22.3125,33.1914 42.91406,33.1914 20.59766,0 37.95703,-13.1914 42.91016,-33.1914 h 9.5664 c 9.20703,0.082 18.06641,-3.50782 24.61328,-9.98047 6.54688,-6.47656 10.24219,-15.29297 10.25782,-24.5 v -25.95703 c -0.008,-13.6836 -7.9961,-26.10157 -20.44532,-31.78516 L 367.80873,135.6373 340.1642,91.598229 c -8,-12.82032 -22.07422,-20.57032 -37.1836,-20.48047 H 185.42592 c -13.67578,-0.004 -26.57422,6.34765 -34.91016,17.1914 l -35.58203,46.667981 -59.628905,16.26953 c -15.160156,4.16407 -25.671875,17.9375 -25.691406,33.65235 v 22.73828 c 0.01953,9.20703 3.710937,18.02344 10.257812,24.5 6.546875,6.47265 15.40625,10.0664 24.613281,9.98047 z m 47.992188,17.625 c -15.644532,-0.004 -28.328126,-12.69141 -28.328126,-28.33594 0.0039,-15.64844 12.6875,-28.33203 28.335936,-28.32813 15.64453,0 28.32812,12.6836 28.32812,28.33204 -0.0156,15.64062 -12.6914,28.3164 -28.33593,28.33203 z m 219.78906,0 c -15.64844,0 -28.33203,-12.6875 -28.33203,-28.33203 0,-15.64844 12.68359,-28.33204 28.33203,-28.33204 15.64453,0 28.33203,12.6836 28.33203,28.33204 -0.0195,15.63671 -12.69531,28.3125 -28.33203,28.33203 z M 45.613419,184.89902 c 0.0039,-8.51563 5.695312,-15.98047 13.90625,-18.24219 l 62.253901,-17.01172 c 1.69531,-0.46484 3.1875,-1.47266 4.25,-2.87109 l 37.22266,-48.773441 c 5.30078,-6.87892 13.49609,-10.90235 22.17969,-10.88282 H 302.9806 c 9.59766,-0.0742 18.54297,4.83593 23.63282,12.972661 l 28.92578,46.13282 c 0.83593,1.32421 2.04297,2.37109 3.47265,3.01171 l 33.54297,15.24219 c 6.73438,3.07422 11.0586,9.79688 11.0586,17.20313 v 25.95703 c -0.0117,4.96484 -2.01954,9.71484 -5.56641,13.1914 -3.54688,3.47266 -8.33984,5.37891 -13.30469,5.28907 h -8.41797 c -2.47656,-22.46875 -21.46093,-39.47266 -44.05859,-39.47266 -22.60156,0 -41.58594,17.00391 -44.0625,39.47266 H 156.5392 c -2.47657,-22.46875 -21.46094,-39.47266 -44.0625,-39.47266 -22.601563,0 -41.582032,17.00391 -44.058594,39.47266 h -3.933594 c -4.964844,0.0898 -9.757812,-1.81641 -13.304688,-5.28907 -3.546874,-3.47656 -5.550781,-8.22656 -5.566406,-13.1914 z m 0,0"
       id="path2" />
    <g
       id="g867"
       transform="rotate(-45,241.98535,295.09584)">
      <rect
         ry="13.883022"
         rx="5.1316981"
         y="232.02324"
         x="217.27971"
         height="182.21466"
         width="10.263396"
         id="rect839"
         style="fill:#000000;fill-opacity:1;stroke:#000000;stroke-width:11.2708;stroke-linecap:square;stroke-miterlimit:4;stroke-dasharray:none;stroke-opacity:1" />
      <circle
         r="95.44577"
         cy="129.90883"
         cx="222.41141"
         id="path837"
         style="fill:#ffffff;fill-opacity:0.563468;stroke:#000000;stroke-width:13.525;stroke-linecap:square;stroke-miterlimit:4;stroke-dasharray:none" />
    </g>
  </g>
</svg>
