<?xml version="1.0" encoding="UTF-8" standalone="no"?>
<svg
   xmlns:dc="http://purl.org/dc/elements/1.1/"
   xmlns:cc="http://creativecommons.org/ns#"
   xmlns:rdf="http://www.w3.org/1999/02/22-rdf-syntax-ns#"
   xmlns:svg="http://www.w3.org/2000/svg"
   xmlns="http://www.w3.org/2000/svg"
   xmlns:sodipodi="http://sodipodi.sourceforge.net/DTD/sodipodi-0.dtd"
   xmlns:inkscape="http://www.inkscape.org/namespaces/inkscape"
   inkscape:version="1.0 (4035a4fb49, 2020-05-01)"
   sodipodi:docname="tyre.svg"
   version="1.1"
   height="512"
   width="512"
   viewBox="0 0 512 512"
   data-name="Layer 1"
   id="Layer_1">
  <metadata
     id="metadata15">
    <rdf:RDF>
      <cc:Work
         rdf:about="">
        <dc:format>image/svg+xml</dc:format>
        <dc:type
           rdf:resource="http://purl.org/dc/dcmitype/StillImage" />
      </cc:Work>
    </rdf:RDF>
  </metadata>
  <defs
     id="defs13">
    <inkscape:path-effect
       simplify_just_coalesce="false"
       simplify_individual_paths="false"
       helper_size="0"
       smooth_angles="360"
       threshold="0.00416667"
       steps="1"
       lpeversion="1"
       is_visible="true"
       id="path-effect1194"
       effect="simplify" />
  </defs>
  <sodipodi:namedview
     inkscape:current-layer="Layer_1"
     inkscape:window-maximized="1"
     inkscape:window-y="-8"
     inkscape:window-x="-8"
     inkscape:cy="-699.65116"
     inkscape:cx="-3260.8962"
     inkscape:zoom="0.17700195"
     inkscape:snap-bbox="true"
     showgrid="false"
     id="namedview11"
     inkscape:window-height="1017"
     inkscape:window-width="2560"
     inkscape:pageshadow="2"
     inkscape:pageopacity="0"
     guidetolerance="10"
     gridtolerance="10"
     objecttolerance="10"
     borderopacity="1"
     bordercolor="#666666"
     pagecolor="#ffffff" />
  <title
     id="title2">Tire</title>
  <g
     transform="matrix(0.90173578,0,0,0.90173578,95.333703,13.936405)"
     id="g1218">
    <path
       id="rect1161"
       style="opacity:0.998;fill:#ffffff;stroke:#000000;stroke-width:15.3506;stroke-linecap:round;stroke-miterlimit:4;stroke-dasharray:none"
       d="m 225.47738,28.157468 c -5.28193,0 -10.51535,2.703876 -13.15429,6.058594 L 210.89934,35.978443 49.64122,237.70889 c -1.4602,1.6025 -2.52517,4.9916 -2.52517,9.87436 v 195.28906 c 10e-6,9.13786 7.08283,16.49414 15.88086,16.49414 h 348.25 c 8.79804,0 15.88086,-7.35628 15.88086,-16.49414 V 247.58325 45.458249 c 0,-9.585346 -7.71738,-17.300781 -17.30273,-17.300781 z"
       sodipodi:nodetypes="scccscssscsss" />
    <path
       id="rect1202"
       style="opacity:0.998;fill:none;stroke:#000000;stroke-width:12.6763;stroke-linecap:round;stroke-linejoin:round;stroke-miterlimit:4;stroke-dasharray:none"
       d="M 228.76023,60.011808 H 393.2157 V 238.68215 H 89.43776 Z"
       sodipodi:nodetypes="ccccc" />
    <rect
       style="opacity:0.998;fill:none;stroke:#000000;stroke-width:10;stroke-linecap:round;stroke-linejoin:round;stroke-miterlimit:4;stroke-dasharray:none"
       id="rect1205"
       width="49.437012"
       height="20.473907"
       x="340.61221"
       y="262.47672"
       rx="10.236954"
       ry="10.236954" />
  </g>
  <g
     style="stroke-width:1.20503"
     transform="matrix(0.66933979,0,0,0.66933979,714.57434,306.53306)"
     id="g1107">
    <circle
       style="opacity:0.998;fill:#ffffff;stroke:#000000;stroke-width:9.64024;stroke-linecap:round;stroke-miterlimit:4;stroke-dasharray:none"
       id="path1079"
       cx="-821.38666"
       cy="63.336296"
       r="211.73018" />
    <path
       id="path1067"
       d="M -821.36635,-156.64429 A 219.961,219.961 0 0 0 -1041.3283,63.317711 c 0,0.066 0,0.132 0,0.2 -0.026,0.264 -0.041,0.531 -0.041,0.8 a 7.86,7.86 0 0 0 0.062,0.952 218.431,218.431 0 0 0 62.98794,152.132999 7.755,7.755 0 0 0 2.86701,2.868 218.435,218.435 0 0 0 152.134,62.985 8.068,8.068 0 0 0 0.952,0.062 7.873,7.873 0 0 0 0.8,-0.041 h 0.2 a 219.963,219.963 0 0 0 155.53701,-375.500001 218.525,218.525 0 0 0 -155.53701,-64.420999 z m 186,228.962001 h 17.662 a 203.173,203.173 0 0 1 -54.385,129.963999 l -12.245,-12.245 a 8,8 0 1 0 -11.314,11.313 l 12.208,12.208 a 203.205,203.205 0 0 1 -130.926,53.493 v -16.733 a 8,8 0 0 0 -16,0 v 16.662 a 203.178,203.178 0 0 1 -129.444,-53.9 l 11.726,-11.727 a 8,8 0 0 0 -11.314,-11.313 l -11.727,11.726 A 203.177,203.177 0 0 1 -1025.0283,72.317711 h 16.6619 a 8.000001,8.000001 0 0 0 0,-16.000002 h -16.7329 a 203.2,203.2 0 0 1 53.49395,-130.926 l 12.207,12.207 a 8,8 0 1 0 11.314,-11.313 l -12.246,-12.246 a 203.171,203.171 0 0 1 129.964,-54.382999 v 17.661 a 8,8 0 0 0 16,0 v -17.733 a 203.2,203.2 0 0 1 131.444,53.973999 l -12.726,12.727 a 8,8 0 1 0 11.314,11.313 l 12.727,-12.726 a 203.2,203.2 0 0 1 53.974,131.445 h -17.733 a 8.000001,8.000001 0 0 0 0,16.000002 z"
       style="fill:#ffffff;stroke-width:1.20503" />
    <path
       style="stroke-width:1.20503"
       d="m -852.12065,32.593203 a 43.464,43.464 0 1 0 61.468,0 43.511,43.511 0 0 0 -61.468,0 z m 50.154,50.152998 a 27.451,27.451 0 1 1 0,-38.839998 27.5,27.5 0 0 1 0,38.839998 z"
       id="path4" />
    <path
       style="stroke-width:1.20503"
       d="m -918.16163,-33.438796 c -53.362,53.362 -53.362,140.188006 0,193.550016 a 137.014,137.014 0 0 0 193.54996,0 c 53.362,-53.36201 53.362,-140.188016 0,-193.550016 -53.362,-53.361997 -140.187,-53.362997 -193.54996,0 z m 129.47496,-19.547 a 120.273,120.273 0 0 1 20.242,7.671 l -20.508,20.508 z m -69.9,1.341 -0.3,29.169 -20.32296,-20.324 a 120.062,120.062 0 0 1 20.62296,-8.845 z m -70.64396,60.4100003 18.951,18.9649997 -26.448,-0.427 a 120.252,120.252 0 0 1 7.499,-18.5379997 z m -8.411,87.5140037 28.007,-0.409 -20.404,20.406002 a 120.185,120.185 0 0 1 -7.601,-19.997002 z m 79.02196,82.026012 a 120.018,120.018 0 0 1 -22.18096,-9.711 l 22.21396,-22.213 z m 69.765,-29.19 22.054,22.054 a 120.265,120.265 0 0 1 -21.609,8.411 z m 52.927,-0.317 a 121.1,121.1 0 0 1 -16.682,13.938 l -38.877,-38.87901 a 8,8 0 0 0 -13.656,5.774 l 0.778,53.31101 a 121.865,121.865 0 0 1 -38.261,-0.674 l 0.055,-55.21201 a 8,8 0 0 0 -13.657,-5.665 l -38.22396,38.22401 a 121.045,121.045 0 0 1 -27.33,-28.97301 l 37.4,-37.400002 a 8,8 0 0 0 -5.775,-13.656004 l -50.848,0.744 a 121.863,121.863 0 0 1 0.46,-36.986 l 49.775,1 h 0.139 a 8.141,8.141 0 0 0 7.363,-5.025 8.244,8.244 0 0 0 -1.707,-8.932 l -35.812,-35.8219997 a 121.491,121.491 0 0 1 27.744,-28.5690003 l 36.29996,36.3000003 a 8,8 0 0 0 13.657,-5.573 l 0.542,-52.3340003 a 121.289,121.289 0 0 1 37.883,-0.7 l -0.482,50.9250003 a 8,8 0 0 0 13.657,5.73199996 l 37.4,-37.40000026 a 121.027,121.027 0 0 1 28.971,27.3300004 l -38.223,38.2249996 a 8,8 0 0 0 5.608,13.656 l 55.34,0.34 a 121.863,121.863 0 0 1 0.423,39.066004 l -55.784,0.488 a 8,8 0 0 0 -5.587,13.656 l 39.284,39.284002 a 121.261,121.261 0 0 1 -11.872,13.80701 z m 19.8,-144.8740157 a 120.1,120.1 0 0 1 9.824,22.5469997 l -32.174,-0.2 z m 10.624,93.6700037 a 120.207,120.207 0 0 1 -9.746,23.565002 l -23.278,-23.277002 z"
       id="path6" />
    <path
       style="stroke-width:1.20503"
       d="M -821.36634,-156.64429 A 219.961,219.961 0 0 0 -1041.3283,63.317707 c 0,0.066 0,0.132 0,0.2 -0.026,0.264 -0.041,0.531 -0.041,0.8 a 7.86,7.86 0 0 0 0.062,0.952 218.431,218.431 0 0 0 62.98794,152.133003 7.755,7.755 0 0 0 2.86701,2.868 218.435,218.435 0 0 0 152.13401,62.985 8.068,8.068 0 0 0 0.952,0.062 7.873,7.873 0 0 0 0.79999,-0.041 h 0.20001 a 219.963,219.963 0 0 0 155.537,-375.500001 218.525,218.525 0 0 0 -155.537,-64.420999 z m 186,228.961997 h 17.662 a 203.173,203.173 0 0 1 -54.385,129.964003 l -12.245,-12.245 a 8,8 0 1 0 -11.314,11.313 l 12.208,12.208 a 203.205,203.205 0 0 1 -130.926,53.493 v -16.733 a 8,8 0 0 0 -16,0 v 16.662 a 203.178,203.178 0 0 1 -129.444,-53.9 l 11.726,-11.727 a 8,8 0 0 0 -11.314,-11.313 l -11.727,11.726 A 203.177,203.177 0 0 1 -1025.0283,72.317707 h 16.662 a 8.000005,8.000005 0 0 0 0,-16.00001 h -16.733 a 203.2,203.2 0 0 1 53.49396,-130.925988 l 12.207,12.207002 a 8,8 0 1 0 11.314,-11.313002 l -12.246,-12.246 a 203.171,203.171 0 0 1 129.964,-54.382999 v 17.661 a 8,8 0 0 0 16,0 v -17.733 a 203.2,203.2 0 0 1 131.444,53.973989 l -12.726,12.72701 a 8,8 0 1 0 11.314,11.313002 l 12.727,-12.726002 a 203.2,203.2 0 0 1 53.974,131.444988 h -17.733 a 8.000005,8.000005 0 0 0 0,16.00001 z"
       id="path8" />
  </g>
</svg>
