<svg height="512" viewBox="0 0 512 512" width="512" xmlns="http://www.w3.org/2000/svg"><g><path d="m104 392a24 24 0 1 0 24 24 24.027 24.027 0 0 0 -24-24zm0 32a8 8 0 1 1 8-8 8.009 8.009 0 0 1 -8 8z"/><path d="m344 392a24 24 0 1 0 24 24 24.027 24.027 0 0 0 -24-24zm0 32a8 8 0 1 1 8-8 8.009 8.009 0 0 1 -8 8z"/><path d="m496 368h-56v-300a28.031 28.031 0 0 0 -28-28h-376a28.031 28.031 0 0 0 -28 28v328a28.031 28.031 0 0 0 28 28h12.58a55.994 55.994 0 0 0 110.84 0h129.16a55.994 55.994 0 0 0 110.84 0h12.58a28.031 28.031 0 0 0 28-28v-12h16v80a8 8 0 0 0 16 0v-80h24a8 8 0 0 0 0-16zm-392 88a40 40 0 1 1 40-40 40.04 40.04 0 0 1 -40 40zm240 0a40 40 0 1 1 40-40 40.04 40.04 0 0 1 -40 40zm80-60a12.01 12.01 0 0 1 -12 12h-12.58a55.994 55.994 0 0 0 -110.84 0h-129.16a55.994 55.994 0 0 0 -110.84 0h-12.58a12.01 12.01 0 0 1 -12-12v-92h400zm0-108h-400v-220a12.01 12.01 0 0 1 12-12h376a12.01 12.01 0 0 1 12 12z"/><path d="m128 312h-88a8 8 0 0 0 0 16h88a8 8 0 0 0 0-16z"/><path d="m72 336h-32a8 8 0 0 0 0 16h32a8 8 0 0 0 0-16z"/></g></svg>